<?xml version="1.0" encoding="iso-8859-1"?>
<!-- Generator: Adobe Illustrator 19.0.0, SVG Export Plug-In . SVG Version: 6.00 Build 0)  -->
<svg version="1.1" id="Capa_1" xmlns="http://www.w3.org/2000/svg" xmlns:xlink="http://www.w3.org/1999/xlink" x="0px" y="0px"
	 viewBox="0 0 496 496" style="enable-background:new 0 0 496 496;" xml:space="preserve">
<g>
	<g>
		<path d="M492.312,209.264l-24.992-16c-1.287-0.825-2.783-1.263-4.312-1.264H452.8L391.064,76.232
			c-1.392-2.607-4.108-4.235-7.064-4.232H112c-2.956-0.003-5.672,1.625-7.064,4.232L43.2,192H32c-1.58,0.003-3.124,0.47-4.44,1.344
			l-24,16C1.335,210.828,0,213.326,0,216v136c0,4.418,3.582,8,8,8h8v40c0,13.255,10.745,24,24,24h48c13.255,0,24-10.745,24-24v-40
			h272v40c0,13.255,10.745,24,24,24h48c13.255,0,24-10.745,24-24v-40h8c4.418,0,8-3.582,8-8V216
			C495.999,213.273,494.609,210.734,492.312,209.264z M116.8,88h262.4l4.272,8H112.528L116.8,88z M104,112h288l42.664,80H61.336
			L104,112z M96,400c0,4.418-3.582,8-8,8H40c-4.418,0-8-3.582-8-8v-40h64V400z M135.368,344l44.8-64h135.664l44.8,64H135.368z
			 M464,400c0,4.418-3.582,8-8,8h-48c-4.418,0-8-3.582-8-8v-40h64V400z M480,344h-99.832l-53.6-76.584
			c-1.499-2.144-3.952-3.42-6.568-3.416H176c-2.611,0.001-5.056,1.276-6.552,3.416L115.832,344H16V220.28L34.4,208h426.24
			L480,220.376V344z"/>
	</g>
</g>
<g>
	<g>
		<path d="M64,240c-22.091,0-40,17.909-40,40c0,22.091,17.909,40,40,40s40-17.909,40-40C103.974,257.92,86.08,240.026,64,240z
			 M64,304c-13.255,0-24-10.745-24-24s10.745-24,24-24s24,10.745,24,24S77.255,304,64,304z"/>
	</g>
</g>
<g>
	<g>
		<path d="M432,240c-22.091,0-40,17.909-40,40c0,22.091,17.909,40,40,40c22.091,0,40-17.909,40-40
			C471.974,257.92,454.08,240.026,432,240z M432,304c-13.255,0-24-10.745-24-24s10.745-24,24-24s24,10.745,24,24
			S445.255,304,432,304z"/>
	</g>
</g>
<g>
	<g>
		<path d="M288,288h-80c-4.418,0-8,3.582-8,8s3.582,8,8,8h80c4.418,0,8-3.582,8-8S292.418,288,288,288z"/>
	</g>
</g>
<g>
	<g>
		<path d="M312,320H184c-4.418,0-8,3.582-8,8s3.582,8,8,8h128c4.418,0,8-3.582,8-8S316.418,320,312,320z"/>
	</g>
</g>
<g>
</g>
<g>
</g>
<g>
</g>
<g>
</g>
<g>
</g>
<g>
</g>
<g>
</g>
<g>
</g>
<g>
</g>
<g>
</g>
<g>
</g>
<g>
</g>
<g>
</g>
<g>
</g>
<g>
</g>
</svg>
