<svg id="effect" height="512" viewBox="0 0 36 36" width="512" xmlns="http://www.w3.org/2000/svg"><path d="m11.532 34.802c6.645-1.919 12.203.206 15.405-.719s9.396-4.708 5.142-19.44-13.924-14.28-17.447-13.263c-16.493 4.763-14.869 36.821-3.1 33.422z" fill="#efefef"/><path d="m29.5 8.5v11c0 1.1-.9 2-2 2h-19c-1.1 0-2-.9-2-2v-11c0-1.1.9-2 2-2h19c1.1 0 2 .9 2 2z" fill="#f3f3f1"/><path d="m18 16.5c-3.29 0-3.313-5 0-5 3.289 0 3.329 5 0 5z" fill="#2fdf84"/><path d="m24 29.5s5.5-2.321 5.5-6.964c0-1.857 0-4.179 0-4.179l-5.5-1.857-5.5 1.857v4.179c0 4.643 5.5 6.964 5.5 6.964z" fill="#2fdf84"/><path d="m10.5 21.5h-2c-1.1 0-2-.9-2-2v-11c0-1.1.9-2 2-2h2c-1.1 0-2 .9-2 2v11c0 1.1.9 2 2 2z" fill="#d5dbe1"/><path d="m19.01 16.32c-.29.11-.63.18-1.01.18-3.29 0-3.31-5 0-5 .37 0 .7.06.99.18-1.97.79-1.95 3.87.02 4.64z" fill="#00b871"/><path d="m25 28.98c-.59.35-1 .52-1 .52s-5.5-2.32-5.5-6.96c0-2.79 0-4.18 0-4.18l5.5-1.86 1 .34-4.5 1.52v4.18c0 3.38 2.92 5.53 4.5 6.44z" fill="#00b871"/><path d="m15.5 22.25h-7c-1.517 0-2.75-1.233-2.75-2.75v-11c0-1.517 1.233-2.75 2.75-2.75h19c1.517 0 2.75 1.233 2.75 2.75v7h-1.5v-7c0-.689-.561-1.25-1.25-1.25h-19c-.689 0-1.25.561-1.25 1.25v11c0 .689.561 1.25 1.25 1.25h7z"/><path d="m16.153 16.677c-.879-.609-1.403-1.609-1.403-2.677 0-1.792 1.458-3.25 3.25-3.25s3.25 1.458 3.25 3.25h-1.5c0-.965-.785-1.75-1.75-1.75s-1.75.785-1.75 1.75c0 .576.283 1.115.757 1.443z"/><path d="m8.75 8.75h3.5v1.5h-3.5z"/><path d="m24 30.25c-.1 0-.198-.02-.292-.059-.243-.103-5.958-2.573-5.958-7.655v-4.179c0-.322.205-.607.51-.71l5.5-1.857c.156-.053.324-.053.48 0l5.5 1.857c.305.103.51.389.51.71v4.179c0 5.082-5.715 7.553-5.958 7.655-.094.039-.192.059-.292.059zm-4.75-11.354v3.64c0 3.516 3.673 5.601 4.749 6.136 1.075-.538 4.751-2.633 4.751-6.136v-3.64l-4.75-1.604z"/><path d="m23.5 25.25c-.014 0-.027 0-.041-.001-.214-.012-.411-.114-.545-.28l-2-2.5 1.172-.938 1.477 1.846 2.907-2.907 1.061 1.061-3.5 3.5c-.141.14-.333.219-.531.219z"/><path d="m2.929 6.667c-.827 0-1.5-.673-1.5-1.5s.673-1.5 1.5-1.5 1.5.673 1.5 1.5-.673 1.5-1.5 1.5zm0-2c-.275 0-.5.224-.5.5s.225.5.5.5.5-.224.5-.5-.225-.5-.5-.5z" fill="#a4afc1"/></svg>