<svg id="Capa_1" enable-background="new 0 0 512 512" height="512" viewBox="0 0 512 512" width="512" xmlns="http://www.w3.org/2000/svg"><g><path currentFill="#FFF" d="m512 0h-512v388.753h186v123.247l70-34.475 70 34.475v-123.247h186zm-256 383.751c-22.056 0-40-17.932-40-39.975s17.944-39.975 40-39.975 40 17.932 40 39.975-17.944 39.975-40 39.975zm0-109.93c-21.316 0-40.423 9.582-53.273 24.649h-91.656c-3.943-3.909-17.372-17.087-21.241-20.922v-166.402c7.759-7.748 13.463-13.449 21.217-21.203h289.906c7.754 7.754 13.458 13.454 21.217 21.203v165.977c-3.891 3.907-17.331 17.478-21.186 21.347h-91.711c-12.85-15.067-31.957-24.649-53.273-24.649zm0 170.28-40 19.7v-62.665c11.348 7.927 25.135 12.596 40 12.596s28.652-4.669 40-12.596v62.665zm226-85.329h-157.636c1.061-4.834 1.636-9.848 1.636-14.996 0-5.265-.604-10.389-1.713-15.325h89.14l38.743-38.926v-190.804l-38.783-38.759h-314.774l-38.783 38.759v191.276l38.845 38.455h89.038c-1.109 4.936-1.713 10.06-1.713 15.325 0 5.148.575 10.162 1.636 14.996h-157.636v-328.792h452z"/><path d="m150.891 149.235h210.219v29.981h-210.219z"/><path d="m180.891 209.197h150.219v29.981h-150.219z"/></g></svg>